<svg width="30" height="30" viewBox="0 0 30 30" fill="none" xmlns="http://www.w3.org/2000/svg">
<path d="M17.5 0.729167C17.5 0.326459 17.1735 0 16.7708 0H13.2292C12.8265 0 12.5 0.32646 12.5 0.729167V12.4998H0.729167C0.326459 12.4998 0 12.8263 0 13.229V16.7706C0 17.1733 0.32646 17.4998 0.729167 17.4998H12.5V29.2708C12.5 29.6735 12.8265 30 13.2292 30H16.7708C17.1735 30 17.5 29.6735 17.5 29.2708V17.4998H29.2708C29.6735 17.4998 30 17.1733 30 16.7706V13.229C30 12.8263 29.6735 12.4998 29.2708 12.4998H17.5V0.729167Z" fill="black"/>
</svg>
