<svg width="60" height="60" viewBox="0 0 60 60" fill="none" xmlns="http://www.w3.org/2000/svg">
<path fill-rule="evenodd" clip-rule="evenodd" d="M30.048 10.5C30.4045 10.5 30.7565 10.5804 31.0776 10.7353L29.0185 10.7353C29.3396 10.5804 29.6915 10.5 30.048 10.5ZM11.8389 19.0141L29.0172 10.736H31.0789L48.2571 19.0141C48.6582 19.2079 48.9965 19.5107 49.2333 19.888C49.4701 20.2652 49.5959 20.7022 49.5961 21.1476V47.1302C49.5961 47.7587 49.3464 48.3615 48.902 48.8059C48.4575 49.2503 47.8548 49.5 47.2263 49.5H12.8698C12.2413 49.5 11.6385 49.2503 11.1941 48.8059C10.7497 48.3615 10.5 47.7587 10.5 47.1302V21.1469C10.5002 20.7015 10.6259 20.2652 10.8627 19.888C11.0995 19.5107 11.4379 19.2079 11.8389 19.0141ZM17.8489 42.1511V24.2751L30.048 18.3963L42.2471 24.2751V42.1511H17.8489Z" fill="white"/>
</svg>
