<svg width="24" height="24" viewBox="0 0 24 24" fill="none" xmlns="http://www.w3.org/2000/svg">
<path d="M16.1292 7.84196C16.392 8.90165 16.5507 9.98447 16.6031 11.075H12.925V8.28015C14.0045 8.23555 15.0774 8.08883 16.1292 7.84196ZM7.88556 3.69091C7.53571 4.24222 7.2225 4.86241 6.95234 5.53971C6.58102 5.39749 6.21823 5.23398 5.86576 5.05001C6.47685 4.51017 7.156 4.05331 7.88556 3.69091ZM4.57336 6.45201C5.15004 6.78635 5.75386 7.07149 6.37842 7.30441C6.07978 8.46186 5.89137 9.73206 5.83177 11.075H2.77356C2.93993 9.39872 3.56233 7.79978 4.57336 6.45201ZM12.3514 0.883973C12.3405 0.883344 12.3294 0.882673 12.3182 0.88199C12.2628 0.878626 12.2031 0.875 12.1427 0.875C12.1299 0.875 12.1177 0.875763 12.1095 0.876276L12.1084 0.876344C12.0989 0.876935 12.0939 0.877204 12.0896 0.877204C12.0774 0.877204 12.0648 0.876753 12.0493 0.876186L12.0486 0.87616C12.0341 0.875627 12.017 0.875 11.9995 0.875C5.86552 0.875 0.875 5.86552 0.875 11.9995C0.875 18.1345 5.86552 23.125 12 23.125C18.1345 23.125 23.125 18.1339 23.125 11.9995C23.125 5.98406 18.3228 1.07006 12.3514 0.883973ZM11.075 20.9808C10.1064 20.4635 9.23505 19.2601 8.61281 17.615C9.42224 17.4273 10.2457 17.3064 11.075 17.2536V20.9808ZM11.075 12.925V15.4015C10.0666 15.46 9.06535 15.6084 8.08326 15.8447C7.8656 14.8849 7.73189 13.908 7.68364 12.925H11.075ZM11.075 8.26372V11.075H7.68332C7.74139 9.92936 7.90602 8.83808 8.15625 7.84426C9.08336 8.06326 10.0645 8.20477 11.075 8.26372ZM11.075 3.00869L11.075 6.41022C10.2865 6.35824 9.50318 6.24527 8.73215 6.0723C9.34463 4.58133 10.1674 3.49352 11.075 3.00869ZM15.5562 6.07959C14.7229 6.26681 13.8372 6.38424 12.9244 6.42756V2.8767C13.9451 3.27146 14.8792 4.42686 15.5562 6.07959ZM18.2395 5.146C17.952 5.2893 17.6498 5.42142 17.3354 5.54305C17.1008 4.9549 16.8342 4.41024 16.5391 3.91575C17.1502 4.26034 17.7206 4.67298 18.2395 5.146ZM2.77356 12.925H5.83183C5.88695 14.1531 6.05078 15.3183 6.30705 16.3927C5.64714 16.6431 5.01119 16.9525 4.40692 17.3172C3.49322 16.0182 2.93063 14.5052 2.77356 12.925ZM5.63266 18.7355C6.02268 18.518 6.42687 18.3269 6.84251 18.1636C7.13938 18.9598 7.49355 19.6826 7.89653 20.315C7.06805 19.9042 6.30494 19.3719 5.63266 18.7355ZM12.9244 21.1127V17.2367C13.8781 17.2829 14.8037 17.4128 15.6728 17.6168C14.989 19.424 14.0052 20.6942 12.9244 21.1127ZM16.2049 15.8366C15.1287 15.5794 14.03 15.4276 12.9244 15.3833V12.925H16.6024C16.5543 13.9052 16.4213 14.8794 16.2049 15.8366ZM17.9811 16.3862C18.2363 15.3129 18.3991 14.1494 18.4547 12.925H21.2265C21.0746 14.4548 20.5424 15.9224 19.6782 17.1941C19.135 16.8799 18.5675 16.6098 17.9811 16.3862ZM18.4548 11.075C18.3947 9.7319 18.2067 8.46152 17.908 7.30389C18.4599 7.09722 18.9959 6.85045 19.5117 6.56554C20.4734 7.89001 21.0652 9.4465 21.2265 11.075H18.4548ZM18.4707 18.6382C17.8892 19.2047 17.2366 19.6927 16.5296 20.09C16.8752 19.5135 17.1818 18.8683 17.4434 18.1657C17.8043 18.3086 18.148 18.4665 18.4707 18.6382Z" fill="#1B183D" stroke="#1B183D" stroke-width="0.25"/>
</svg>
