<svg width="41" height="16" viewBox="0 0 41 16" fill="none" xmlns="http://www.w3.org/2000/svg">
<path d="M10.0132 14.9714C10.6779 15.4119 11.5655 14.9352 11.5655 14.1378L11.5655 11.1818C11.5655 10.6295 12.0132 10.1818 12.5655 10.1818L39.8457 10.1818C40.398 10.1818 40.8457 9.7341 40.8457 9.18182L40.8457 6.81818C40.8457 6.2659 40.398 5.81818 39.8457 5.81818L12.5655 5.81818C12.0132 5.81818 11.5655 5.37046 11.5655 4.81818L11.5655 1.8622C11.5655 1.06478 10.6779 0.588128 10.0132 1.02858L0.749947 7.16639C0.153081 7.56187 0.153081 8.43813 0.749947 8.83361L10.0132 14.9714Z" fill="white"/>
</svg>
