<svg width="60" height="60" viewBox="0 0 60 60" fill="none" xmlns="http://www.w3.org/2000/svg">
<path d="M46.3662 48H17.4192C17.1092 48 16.8119 47.8769 16.5927 47.6577C16.3736 47.4385 16.2504 47.1412 16.2504 46.8312V41.9143C16.2504 41.6043 16.3736 41.307 16.5927 41.0879C16.8119 40.8687 17.1092 40.7455 17.4192 40.7455H40.956C41.2078 40.7454 41.4529 40.664 41.6548 40.5134C41.8567 40.3628 42.0045 40.151 42.0764 39.9096L45.3006 29.0521C45.3524 28.8777 45.3628 28.6936 45.3309 28.5144C45.2991 28.3353 45.2258 28.1661 45.117 28.0202C45.0082 27.8744 44.8668 27.756 44.7042 27.6744C44.5416 27.5929 44.3621 27.5504 44.1802 27.5504H14.0523C13.7964 27.551 13.5474 27.4676 13.3435 27.313C13.1396 27.1583 12.9922 26.941 12.9238 26.6944L11.0981 20.1105C11.0295 19.8641 10.882 19.6469 10.6782 19.4923C10.4744 19.3376 10.2255 19.2541 9.96964 19.2545H5.16878C4.8588 19.2545 4.56153 19.1313 4.34234 18.9122C4.12315 18.693 4 18.3957 4 18.0857V13.1688C4 12.8588 4.12315 12.5615 4.34234 12.3423C4.56153 12.1232 4.8588 12 5.16878 12H15.4863C15.7421 11.9995 15.9911 12.083 16.195 12.2376C16.3988 12.3922 16.5463 12.6095 16.6147 12.856L18.4397 19.4383C18.508 19.6849 18.6555 19.9022 18.8593 20.0569C19.0632 20.2115 19.3122 20.2949 19.5681 20.2943H53.906C54.0879 20.2944 54.2672 20.337 54.4298 20.4186C54.5923 20.5002 54.7336 20.6186 54.8423 20.7645C54.951 20.9103 55.0242 21.0795 55.056 21.2585C55.0878 21.4376 55.0775 21.6217 55.0257 21.796L47.4874 47.1625C47.4159 47.4044 47.2681 47.6167 47.066 47.7676C46.864 47.9186 46.6184 48.0001 46.3662 48V48Z" fill="white"/>
</svg>
