<svg width="60" height="60" viewBox="0 0 60 60" fill="none" xmlns="http://www.w3.org/2000/svg">
<path fill-rule="evenodd" clip-rule="evenodd" d="M43.7255 16.3825V16.3842L34.3182 10.9521L31.591 9.37757C31.1625 9.13022 30.6766 9 30.1819 9C29.6872 9 29.2012 9.13022 28.7728 9.37757L12.4091 18.8249C11.9807 19.0722 11.6249 19.428 11.3776 19.8564C11.1302 20.2848 11 20.7708 11 21.2654V38.7346C11 39.2293 11.1302 39.7152 11.3776 40.1436C11.6249 40.5721 11.9813 40.9281 12.4097 41.1755L13.0278 41.5318L26.0455 49.0479L28.7728 50.6224C29.2012 50.8698 29.6872 51 30.1819 51C30.6766 51 31.1625 50.8698 31.591 50.6224L47.3365 41.5315L47.9546 41.1751C48.383 40.9278 48.7388 40.5721 48.9861 40.1436C49.2335 39.7152 49.3637 39.2293 49.3637 38.7346V21.7273H49.3619V21.2636C49.3619 20.7689 49.2317 20.2829 48.9843 19.8545C48.737 19.4261 48.3812 19.0704 47.9528 18.823L43.7255 16.3825ZM20.0728 20.9091L30.1819 15.0728L40.2909 20.9091L30.1819 26.7453L20.0728 20.9091ZM33 31.6247L43.7273 25.4335V37.1063L33 43.3006V31.6247ZM16.6364 37.1063V25.4338L27.3637 31.6265V43.3006L16.6364 37.1063Z" fill="white"/>
</svg>
