<svg width="41" height="41" viewBox="0 0 41 41" fill="none" xmlns="http://www.w3.org/2000/svg">
<path fill-rule="evenodd" clip-rule="evenodd" d="M36.9801 18.8377C37.63 18.4632 38.3926 18.4632 39.0046 18.8149C39.6176 19.1675 39.9994 19.8251 39.9994 20.5313H39.9974C40.0821 31.2619 31.6742 39.8113 20.8481 39.997L20.5052 40C9.74683 40 1 31.2212 1 20.431C1 15.239 3.03644 10.3549 6.73453 6.67971C10.4336 3.00251 15.3548 0.994053 20.553 1.00001L21.2986 1.002V1.15298C21.3853 1.18775 21.4701 1.22847 21.5508 1.27516C22.1638 1.62778 22.5456 2.28534 22.5456 2.99158C22.5456 3.69782 22.1638 4.35538 21.5508 4.70801C21.18 4.92157 20.7604 5.01096 20.3337 4.9603C16.2708 4.98514 12.3744 6.62706 9.44779 9.58809C6.52221 12.5471 4.93533 16.4558 4.97918 20.5919C5.06491 28.9326 11.9457 35.8003 20.3168 35.8986C24.5023 35.9374 28.3978 34.368 31.3742 31.4546C34.3496 28.5383 36.0003 24.6545 36.0232 20.5164H36.0282C36.0491 19.8558 36.3432 19.2986 36.8206 18.943L36.9801 18.8377ZM20.6813 9.23722C21.729 9.23722 22.5812 10.0865 22.5812 11.1304V15.7612L35.0162 3.37078C35.7259 2.66554 36.9788 2.66653 37.6866 3.37177C38.0434 3.72738 38.2398 4.19919 38.2398 4.7018C38.2398 5.20441 38.0434 5.67722 37.6846 6.03283L25.2486 18.4233H29.9006C30.4 18.4233 30.8895 18.6249 31.2423 18.9775C31.5982 19.3311 31.8005 19.8198 31.7985 20.3185C31.7985 21.3595 30.9473 22.2077 29.9006 22.2077H20.2457C19.86 22.2077 19.4822 22.0518 19.2101 21.7796C18.934 21.5055 18.7815 21.1389 18.7815 20.7496V11.1304C18.7815 10.0865 19.6337 9.23722 20.6813 9.23722Z" fill="black"/>
<path d="M39.0046 18.8149L39.2539 18.3815L39.2537 18.3813L39.0046 18.8149ZM36.9801 18.8377L36.7305 18.4045L36.7173 18.4121L36.7046 18.4204L36.9801 18.8377ZM39.9994 20.5313V21.0313H40.4994V20.5313H39.9994ZM39.9974 20.5313V20.0313H39.4934L39.4974 20.5352L39.9974 20.5313ZM20.8481 39.997L20.8524 40.497L20.8567 40.4969L20.8481 39.997ZM20.5052 40V40.5L20.5095 40.5L20.5052 40ZM6.73453 6.67971L7.08699 7.03436L7.08703 7.03431L6.73453 6.67971ZM20.553 1.00001L20.5544 0.500014L20.5536 0.500014L20.553 1.00001ZM21.2986 1.002H21.7986V0.50333L21.3 0.502002L21.2986 1.002ZM21.2986 1.15298H20.7986V1.49122L21.1126 1.61708L21.2986 1.15298ZM21.5508 1.27516L21.3005 1.70801L21.3015 1.70857L21.5508 1.27516ZM21.5508 4.70801L21.3015 4.27459L21.3013 4.27473L21.5508 4.70801ZM20.3337 4.9603L20.3927 4.46379L20.3618 4.46012L20.3307 4.46031L20.3337 4.9603ZM9.44779 9.58809L9.80335 9.93963L9.80341 9.93957L9.44779 9.58809ZM4.97918 20.5919L5.47916 20.5867L5.47916 20.5866L4.97918 20.5919ZM20.3168 35.8986L20.3109 36.3986L20.3122 36.3986L20.3168 35.8986ZM31.3742 31.4546L31.7239 31.8119L31.7242 31.8117L31.3742 31.4546ZM36.0232 20.5164V20.0164H35.526L35.5232 20.5136L36.0232 20.5164ZM36.0282 20.5164V21.0164H36.5126L36.5279 20.5322L36.0282 20.5164ZM36.8206 18.943L36.5452 18.5257L36.5333 18.5335L36.522 18.542L36.8206 18.943ZM22.5812 15.7612H22.0812V16.9653L22.9341 16.1154L22.5812 15.7612ZM35.0162 3.37078L34.6637 3.01611L34.6632 3.01659L35.0162 3.37078ZM37.6866 3.37177L38.0395 3.0176V3.0176L37.6866 3.37177ZM37.6846 6.03283L37.3326 5.67767L37.3317 5.67863L37.6846 6.03283ZM25.2486 18.4233L24.8957 18.0691L24.0384 18.9233H25.2486V18.4233ZM31.2423 18.9775L30.8889 19.3312L30.8899 19.3322L31.2423 18.9775ZM31.7985 20.3185L31.2985 20.3165V20.3185H31.7985ZM19.2101 21.7796L19.5637 21.4261L19.5624 21.4248L19.2101 21.7796ZM39.2537 18.3813C38.4822 17.9381 37.5296 17.944 36.7305 18.4045L37.2297 19.2709C37.7304 18.9825 38.3029 18.9884 38.7555 19.2484L39.2537 18.3813ZM40.4994 20.5313C40.4994 19.6453 40.0213 18.8229 39.2539 18.3815L38.7553 19.2483C39.2139 19.5121 39.4994 20.0048 39.4994 20.5313H40.4994ZM39.9974 21.0313H39.9994V20.0313H39.9974V21.0313ZM20.8567 40.4969C31.953 40.3065 40.5843 31.5363 40.4974 20.5273L39.4974 20.5352C39.5799 30.9875 31.3954 39.316 20.8395 39.4971L20.8567 40.4969ZM20.5095 40.5L20.8524 40.497L20.8437 39.497L20.5008 39.5L20.5095 40.5ZM0.5 20.431C0.5 31.4957 9.46909 40.5 20.5052 40.5V39.5C10.0246 39.5 1.5 30.9466 1.5 20.431H0.5ZM6.38208 6.32506C2.58997 10.0937 0.5 15.1052 0.5 20.431H1.5C1.5 15.3727 3.48291 10.6161 7.08699 7.03436L6.38208 6.32506ZM20.5536 0.500014C15.224 0.493903 10.1756 2.55397 6.38203 6.32511L7.08703 7.03431C10.6916 3.45105 15.4855 1.4942 20.5525 1.50001L20.5536 0.500014ZM21.3 0.502002L20.5544 0.500015L20.5517 1.50001L21.2973 1.502L21.3 0.502002ZM21.7986 1.15298V1.002H20.7986V1.15298H21.7986ZM21.8011 0.842307C21.6984 0.782902 21.592 0.731917 21.4847 0.688885L21.1126 1.61708C21.1787 1.64358 21.2418 1.67404 21.3005 1.70801L21.8011 0.842307ZM23.0456 2.99158C23.0456 2.1056 22.5675 1.28316 21.8001 0.841745L21.3015 1.70857C21.7602 1.97239 22.0456 2.46509 22.0456 2.99158H23.0456ZM21.8001 5.14142C22.5675 4.7 23.0456 3.87756 23.0456 2.99158H22.0456C22.0456 3.51807 21.7602 4.01077 21.3015 4.27459L21.8001 5.14142ZM20.2748 5.45682C20.8109 5.52047 21.3384 5.40732 21.8004 5.14128L21.3013 4.27473C21.0216 4.43581 20.7098 4.50145 20.3927 4.46379L20.2748 5.45682ZM9.80341 9.93957C12.638 7.07156 16.4082 5.48431 20.3368 5.46029L20.3307 4.46031C16.1334 4.48597 12.1107 6.18257 9.09218 9.23661L9.80341 9.93957ZM5.47916 20.5866C5.43672 16.5848 6.97101 12.8044 9.80335 9.93963L9.09223 9.23656C6.07342 12.2899 4.43393 16.3268 4.47921 20.5972L5.47916 20.5866ZM20.3227 35.3987C12.2218 35.3035 5.56207 28.654 5.47916 20.5867L4.47921 20.597C4.56774 29.2112 11.6697 36.2971 20.3109 36.3986L20.3227 35.3987ZM31.0244 31.0973C28.1428 33.9179 24.3748 35.4362 20.3214 35.3987L20.3122 36.3986C24.6298 36.4386 28.6527 34.8181 31.7239 31.8119L31.0244 31.0973ZM35.5232 20.5136C35.501 24.5173 33.9051 28.2739 31.0242 31.0975L31.7242 31.8117C34.7941 28.8027 36.4995 24.7917 36.5232 20.5192L35.5232 20.5136ZM36.0282 20.0164H36.0232V21.0164H36.0282V20.0164ZM36.522 18.542C35.9166 18.9928 35.554 19.6948 35.5284 20.5006L36.5279 20.5322C36.5443 20.0168 36.7697 19.6044 37.1193 19.344L36.522 18.542ZM36.7046 18.4204L36.5452 18.5257L37.0961 19.3603L37.2556 19.255L36.7046 18.4204ZM23.0812 11.1304C23.0812 9.80869 22.0034 8.73722 20.6813 8.73722V9.73722C21.4545 9.73722 22.0812 10.3643 22.0812 11.1304H23.0812ZM23.0812 15.7612V11.1304H22.0812V15.7612H23.0812ZM34.6632 3.01659L22.2283 15.407L22.9341 16.1154L35.3691 3.72497L34.6632 3.01659ZM38.0395 3.0176C37.1367 2.11798 35.5685 2.11703 34.6637 3.01611L35.3686 3.72545C35.8832 3.21404 36.821 3.21508 37.3336 3.72595L38.0395 3.0176ZM38.7398 4.7018C38.7398 4.06581 38.4902 3.46669 38.0395 3.0176L37.3336 3.72595C37.5967 3.98806 37.7398 4.33258 37.7398 4.7018H38.7398ZM38.0365 6.38798C38.4902 5.93839 38.7398 5.33767 38.7398 4.7018H37.7398C37.7398 5.07115 37.5966 5.41606 37.3326 5.67767L38.0365 6.38798ZM25.6015 18.7775L38.0375 6.38703L37.3317 5.67863L24.8957 18.0691L25.6015 18.7775ZM29.9006 17.9233H25.2486V18.9233H29.9006V17.9233ZM31.5958 18.6238C31.1486 18.177 30.5318 17.9233 29.9006 17.9233V18.9233C30.2682 18.9233 30.6303 19.0728 30.8889 19.3312L31.5958 18.6238ZM32.2985 20.3205C32.3011 19.6875 32.0452 19.0704 31.5948 18.6229L30.8899 19.3322C31.1512 19.5918 31.3 19.9522 31.2985 20.3165L32.2985 20.3205ZM29.9006 22.7077C31.2214 22.7077 32.2985 21.6376 32.2985 20.3185H31.2985C31.2985 21.0813 30.6731 21.7077 29.9006 21.7077V22.7077ZM20.2457 22.7077H29.9006V21.7077H20.2457V22.7077ZM18.8565 22.1332C19.2228 22.4996 19.728 22.7077 20.2457 22.7077V21.7077C19.992 21.7077 19.7416 21.604 19.5637 21.4261L18.8565 22.1332ZM18.2815 20.7496C18.2815 21.2721 18.487 21.7663 18.8578 22.1344L19.5624 21.4248C19.3809 21.2446 19.2815 21.0058 19.2815 20.7496H18.2815ZM18.2815 11.1304V20.7496H19.2815V11.1304H18.2815ZM20.6813 8.73722C19.3592 8.73722 18.2815 9.80869 18.2815 11.1304H19.2815C19.2815 10.3643 19.9082 9.73722 20.6813 9.73722V8.73722Z" fill="black"/>
</svg>
