<svg width="24" height="24" viewBox="0 0 24 24" fill="none" xmlns="http://www.w3.org/2000/svg">
<mask id="mask0_18_6080" style="mask-type:alpha" maskUnits="userSpaceOnUse" x="0" y="0" width="24" height="24">
<rect width="24" height="24" fill="#C4C4C4"/>
</mask>
<g mask="url(#mask0_18_6080)">
<mask id="path-2-outside-1_18_6080" maskUnits="userSpaceOnUse" x="2" y="3.77661" width="20" height="18" fill="black">
<rect fill="white" x="2" y="3.77661" width="20" height="18"/>
<path fill-rule="evenodd" clip-rule="evenodd" d="M3 20.6351H21V12.4298L18.5816 4.77663H15.7439V5.96895H17.745L19.5908 11.9389H14.4818L13.361 13.62H10.6385L9.51774 11.9388H4.40922L6.25501 5.96893H8.17267V4.77661H5.41842L3 12.4297V20.6351ZM4.19232 13.1312H8.87986L10.0006 14.8123H13.9989L15.1196 13.1312H19.8077V19.4428H4.19232V13.1312Z"/>
</mask>
<path fill-rule="evenodd" clip-rule="evenodd" d="M3 20.6351H21V12.4298L18.5816 4.77663H15.7439V5.96895H17.745L19.5908 11.9389H14.4818L13.361 13.62H10.6385L9.51774 11.9388H4.40922L6.25501 5.96893H8.17267V4.77661H5.41842L3 12.4297V20.6351ZM4.19232 13.1312H8.87986L10.0006 14.8123H13.9989L15.1196 13.1312H19.8077V19.4428H4.19232V13.1312Z" fill="#BBBAC5"/>
<path d="M21 20.6351V20.9051H21.27V20.6351H21ZM3 20.6351H2.73V20.9051H3V20.6351ZM21 12.4298H21.27V12.3881L21.2575 12.3484L21 12.4298ZM18.5816 4.77663L18.839 4.69528L18.7794 4.50663H18.5816V4.77663ZM15.7439 4.77663V4.50663H15.4739V4.77663H15.7439ZM15.7439 5.96895H15.4739V6.23895H15.7439V5.96895ZM17.745 5.96895L18.0029 5.8892L17.9441 5.69895H17.745V5.96895ZM19.5908 11.9389V12.2089H19.9569L19.8487 11.8591L19.5908 11.9389ZM14.4818 11.9389V11.6689H14.3373L14.2571 11.7891L14.4818 11.9389ZM13.361 13.62V13.89H13.5055L13.5856 13.7698L13.361 13.62ZM10.6385 13.62L10.4139 13.7698L10.494 13.89H10.6385V13.62ZM9.51774 11.9388L9.74239 11.7891L9.66224 11.6688H9.51774V11.9388ZM4.40922 11.9388L4.15127 11.8591L4.04313 12.2088H4.40922V11.9388ZM6.25501 5.96893V5.69893H6.05588L5.99706 5.88918L6.25501 5.96893ZM8.17267 5.96893V6.23893H8.44267V5.96893H8.17267ZM8.17267 4.77661H8.44267V4.50661H8.17267V4.77661ZM5.41842 4.77661V4.50661H5.22058L5.16097 4.69526L5.41842 4.77661ZM3 12.4297L2.74255 12.3484L2.73 12.3881V12.4297H3ZM8.87986 13.1312L9.10451 12.9814L9.02436 12.8612H8.87986V13.1312ZM4.19232 13.1312V12.8612H3.92232V13.1312H4.19232ZM10.0006 14.8123L9.77597 14.9621L9.85612 15.0823H10.0006V14.8123ZM13.9989 14.8123V15.0823H14.1434L14.2235 14.9621L13.9989 14.8123ZM15.1196 13.1312V12.8612H14.9751L14.895 12.9814L15.1196 13.1312ZM19.8077 13.1312H20.0777V12.8612H19.8077V13.1312ZM19.8077 19.4428V19.7128H20.0777V19.4428H19.8077ZM4.19232 19.4428H3.92232V19.7128H4.19232V19.4428ZM21 20.3651H3V20.9051H21V20.3651ZM20.73 12.4298V20.6351H21.27V12.4298H20.73ZM18.3241 4.85799L20.7425 12.5111L21.2575 12.3484L18.839 4.69528L18.3241 4.85799ZM15.7439 5.04663H18.5816V4.50663H15.7439V5.04663ZM16.0139 5.96895V4.77663H15.4739V5.96895H16.0139ZM17.745 5.69895H15.7439V6.23895H17.745V5.69895ZM19.8487 11.8591L18.0029 5.8892L17.487 6.04871L19.3328 12.0186L19.8487 11.8591ZM14.4818 12.2089H19.5908V11.6689H14.4818V12.2089ZM13.5856 13.7698L14.7064 12.0886L14.2571 11.7891L13.1363 13.4703L13.5856 13.7698ZM10.6385 13.89H13.361V13.35H10.6385V13.89ZM9.29308 12.0886L10.4139 13.7698L10.8632 13.4703L9.74239 11.7891L9.29308 12.0886ZM4.40922 12.2088H9.51774V11.6688H4.40922V12.2088ZM5.99706 5.88918L4.15127 11.8591L4.66717 12.0186L6.51296 6.04869L5.99706 5.88918ZM8.17267 5.69893H6.25501V6.23893H8.17267V5.69893ZM7.90267 4.77661V5.96893H8.44267V4.77661H7.90267ZM5.41842 5.04661H8.17267V4.50661H5.41842V5.04661ZM3.25745 12.5111L5.67588 4.85797L5.16097 4.69526L2.74255 12.3484L3.25745 12.5111ZM3.27 20.6351V12.4297H2.73V20.6351H3.27ZM8.87986 12.8612H4.19232V13.4012H8.87986V12.8612ZM10.2253 14.6626L9.10451 12.9814L8.6552 13.281L9.77597 14.9621L10.2253 14.6626ZM13.9989 14.5423H10.0006V15.0823H13.9989V14.5423ZM14.895 12.9814L13.7742 14.6626L14.2235 14.9621L15.3443 13.281L14.895 12.9814ZM19.8077 12.8612H15.1196V13.4012H19.8077V12.8612ZM20.0777 19.4428V13.1312H19.5377V19.4428H20.0777ZM4.19232 19.7128H19.8077V19.1728H4.19232V19.7128ZM3.92232 13.1312V19.4428H4.46232V13.1312H3.92232Z" fill="#BBBAC5" mask="url(#path-2-outside-1_18_6080)"/>
<mask id="path-4-outside-2_18_6080" maskUnits="userSpaceOnUse" x="8.15137" y="2" width="8" height="10" fill="black">
<rect fill="white" x="8.15137" y="2" width="8" height="10"/>
<path fill-rule="evenodd" clip-rule="evenodd" d="M12.6042 3H11.4119V8.52279L9.99393 7.10553L9.15137 7.9501L12.0088 10.8065L14.8653 7.95L14.0227 7.10543L12.6042 8.52394V3ZM12.3832 8.74499H11.6342L12.0088 9.11937L12.3832 8.74499Z"/>
</mask>
<path fill-rule="evenodd" clip-rule="evenodd" d="M12.6042 3H11.4119V8.52279L9.99393 7.10553L9.15137 7.9501L12.0088 10.8065L14.8653 7.95L14.0227 7.10543L12.6042 8.52394V3ZM12.3832 8.74499H11.6342L12.0088 9.11937L12.3832 8.74499Z" fill="#BBBAC5"/>
<path d="M11.4119 3V2.73H11.1419V3H11.4119ZM12.6042 3H12.8742V2.73H12.6042V3ZM11.4119 8.52279L11.221 8.71376L11.6819 9.17439V8.52279H11.4119ZM9.99393 7.10553L10.1848 6.91456L9.99365 6.72352L9.80278 6.91484L9.99393 7.10553ZM9.15137 7.9501L8.96022 7.75941L8.76972 7.95037L8.96048 8.14106L9.15137 7.9501ZM12.0088 10.8065L11.8179 10.9975L12.0088 11.1883L12.1997 10.9974L12.0088 10.8065ZM14.8653 7.95L15.0562 8.14092L15.2469 7.95023L15.0564 7.75931L14.8653 7.95ZM14.0227 7.10543L14.2138 6.91474L14.0229 6.72336L13.8318 6.91451L14.0227 7.10543ZM12.6042 8.52394H12.3342V9.17579L12.7951 8.71486L12.6042 8.52394ZM12.3832 8.74499L12.5741 8.93591L13.035 8.47499H12.3832V8.74499ZM11.6342 8.74499V8.47499H10.9822L11.4434 8.93596L11.6342 8.74499ZM12.0088 9.11937L11.8179 9.31034L12.0088 9.50116L12.1997 9.31029L12.0088 9.11937ZM11.4119 3.27H12.6042V2.73H11.4119V3.27ZM11.6819 8.52279V3H11.1419V8.52279H11.6819ZM9.80306 7.2965L11.221 8.71376L11.6028 8.33183L10.1848 6.91456L9.80306 7.2965ZM9.34251 8.1408L10.1851 7.29622L9.80278 6.91484L8.96022 7.75941L9.34251 8.1408ZM12.1997 10.6155L9.34225 7.75915L8.96048 8.14106L11.8179 10.9975L12.1997 10.6155ZM14.6743 7.75908L11.8179 10.6156L12.1997 10.9974L15.0562 8.14092L14.6743 7.75908ZM13.8316 7.29612L14.6741 8.14069L15.0564 7.75931L14.2138 6.91474L13.8316 7.29612ZM12.7951 8.71486L14.2136 7.29635L13.8318 6.91451L12.4133 8.33303L12.7951 8.71486ZM12.3342 3V8.52394H12.8742V3H12.3342ZM12.3832 8.47499H11.6342V9.01499H12.3832V8.47499ZM11.4434 8.93596L11.8179 9.31034L12.1997 8.9284L11.8251 8.55402L11.4434 8.93596ZM12.1997 9.31029L12.5741 8.93591L12.1922 8.55407L11.8179 8.92845L12.1997 9.31029Z" fill="#BBBAC5" mask="url(#path-4-outside-2_18_6080)"/>
</g>
</svg>
