<svg width="24" height="24" viewBox="0 0 24 24" fill="none" xmlns="http://www.w3.org/2000/svg">
<path fill-rule="evenodd" clip-rule="evenodd" d="M12.0344 0.5C9.15612 0.5 6.14668 1.64919 3.85491 3.79773L3.84902 3.80325L3.84332 3.80895C-0.614441 8.26671 -0.614441 15.5958 3.84332 20.0536C6.13649 22.3467 9.01343 23.5 12.0344 23.5C14.3406 23.5 16.7678 22.7352 18.7255 21.3232L20.3433 22.9411C20.7182 23.316 21.2607 23.5 21.6594 23.5C21.924 23.5 22.1668 23.4553 22.3953 23.3538C22.6215 23.2532 22.8084 23.1081 22.9754 22.9411C23.7207 22.1958 23.7207 21.0542 22.9754 20.3089L21.3556 18.6891C24.5263 14.2407 24.1469 7.86795 20.0879 3.80895C17.9266 1.64766 14.9097 0.5 12.0344 0.5ZM6.62795 6.56286C8.03806 5.02456 9.96274 4.25 12.0344 4.25C14.106 4.25 16.0307 5.02456 17.4408 6.56286L17.4481 6.57087L17.4558 6.57855C20.1588 9.28154 20.4268 13.6706 18.1045 16.7774L17.4544 17.5575L16.6682 18.2127C15.381 19.2408 13.5678 19.8875 11.8969 19.8875C9.82524 19.8875 7.90056 19.1129 6.49045 17.5746C5.05929 16.0134 4.28438 14.0703 4.28438 12C4.28438 9.92836 5.05894 8.00369 6.59724 6.59358L6.61326 6.57889L6.62795 6.56286Z" />
</svg>
