<svg width="41" height="41" viewBox="0 0 41 41" fill="none" xmlns="http://www.w3.org/2000/svg">
<path fill-rule="evenodd" clip-rule="evenodd" d="M32.7725 4.6048H28.1215C27.6141 4.6048 27.1377 4.40813 26.7778 4.04955C26.42 3.69295 26.2226 3.21816 26.2226 2.71157C26.2226 1.66861 27.0739 0.819336 28.1215 0.819336H37.7764C38.1661 0.819336 38.534 0.971311 38.8111 1.24745C39.0872 1.52259 39.2397 1.88912 39.2397 2.27849V11.8976C39.2397 12.9416 38.3874 13.7908 37.3398 13.7908C36.2922 13.7908 35.4399 12.9416 35.4399 11.8976V7.26685L23.005 19.6563C22.6531 20.0069 22.1667 20.2076 21.6703 20.2076C21.1739 20.2076 20.6874 20.0069 20.3356 19.6573L20.3346 19.6563C19.9787 19.3007 19.7814 18.8279 19.7814 18.3253C19.7814 17.8296 19.9837 17.3449 20.3356 16.9952L32.7725 4.6048ZM36.9801 18.8375C37.63 18.4631 38.3926 18.4621 39.0046 18.8147C39.6176 19.1673 39.9994 19.8249 39.9994 20.5301H39.9974C40.0821 31.2618 31.6742 39.8101 20.8481 39.9968L20.5062 39.9998C9.74783 39.9998 1 31.221 1 20.4308C1 15.2388 3.03644 10.3548 6.73553 6.67855C10.4336 3.00235 15.3558 0.992899 20.553 0.999852L21.2986 1.00184V1.15282C21.3853 1.18759 21.4701 1.22831 21.5508 1.275C22.1648 1.62762 22.5456 2.28518 22.5456 2.99142C22.5456 3.69766 22.1648 4.35522 21.5508 4.70784C21.18 4.92041 20.7604 5.0108 20.3337 4.96014C16.2708 4.98497 12.3744 6.6269 9.44779 9.58793C6.52221 12.547 4.93533 16.4546 4.97918 20.5907C5.06491 28.9315 11.9457 35.7991 20.3168 35.8985C24.5023 35.9372 28.3988 34.3678 31.3742 31.4535C34.3496 28.5381 36.0013 24.6543 36.0232 20.5162H36.0282C36.0491 19.8557 36.3432 19.2984 36.8206 18.9428L36.9801 18.8375Z" fill="black"/>
<path d="M32.7725 4.6048L33.1254 4.95902L33.9828 4.1048H32.7725V4.6048ZM26.7778 4.04955L27.1308 3.69538L27.1308 3.69538L26.7778 4.04955ZM38.8111 1.24745L39.164 0.893278L39.164 0.893274L38.8111 1.24745ZM35.4399 7.26685H35.9399V6.06287L35.087 6.91265L35.4399 7.26685ZM23.005 19.6563L22.6521 19.3021L22.652 19.3021L23.005 19.6563ZM20.3356 19.6573L19.9824 20.0112L19.9831 20.012L20.3356 19.6573ZM20.3346 19.6563L19.9811 20.01L19.9814 20.0102L20.3346 19.6563ZM20.3356 16.9952L20.688 17.3499L20.6885 17.3495L20.3356 16.9952ZM39.0046 18.8147L38.755 19.2479L38.7553 19.2481L39.0046 18.8147ZM36.9801 18.8375L36.7305 18.4043L36.7173 18.4119L36.7046 18.4203L36.9801 18.8375ZM39.9994 20.5301V21.0301H40.4994V20.5301H39.9994ZM39.9974 20.5301V20.0301H39.4934L39.4974 20.5341L39.9974 20.5301ZM20.8481 39.9968L20.8524 40.4968L20.8567 40.4968L20.8481 39.9968ZM20.5062 39.9998V40.4998L20.5105 40.4998L20.5062 39.9998ZM6.73553 6.67855L7.08798 7.0332L7.08803 7.03315L6.73553 6.67855ZM20.553 0.999852L20.5544 0.499853L20.5537 0.499852L20.553 0.999852ZM21.2986 1.00184H21.7986V0.503169L21.3 0.50184L21.2986 1.00184ZM21.2986 1.15282H20.7986V1.49106L21.1126 1.61692L21.2986 1.15282ZM21.5508 1.275L21.3005 1.70785L21.3018 1.70858L21.5508 1.275ZM21.5508 4.70784L21.7995 5.14162L21.7998 5.14143L21.5508 4.70784ZM20.3337 4.96014L20.3927 4.46363L20.3618 4.45996L20.3307 4.46015L20.3337 4.96014ZM9.44779 9.58793L9.80335 9.93947L9.80341 9.93941L9.44779 9.58793ZM4.97918 20.5907L5.47916 20.5856L5.47916 20.5854L4.97918 20.5907ZM20.3168 35.8985L20.3109 36.3984L20.3122 36.3985L20.3168 35.8985ZM31.3742 31.4535L31.724 31.8107L31.7241 31.8106L31.3742 31.4535ZM36.0232 20.5162V20.0162H35.5258L35.5232 20.5136L36.0232 20.5162ZM36.0282 20.5162V21.0162H36.5126L36.5279 20.5321L36.0282 20.5162ZM36.8206 18.9428L36.5452 18.5256L36.5333 18.5334L36.522 18.5418L36.8206 18.9428ZM28.1215 5.1048H32.7725V4.1048H28.1215V5.1048ZM26.4249 4.40372C26.8785 4.85572 27.4819 5.1048 28.1215 5.1048V4.1048C27.7464 4.1048 27.3968 3.96054 27.1308 3.69538L26.4249 4.40372ZM25.7226 2.71157C25.7226 3.35101 25.9729 3.95327 26.4249 4.40372L27.1308 3.69538C26.8671 3.43264 26.7226 3.0853 26.7226 2.71157H25.7226ZM28.1215 0.319336C26.7992 0.319336 25.7226 1.39098 25.7226 2.71157H26.7226C26.7226 1.94623 27.3485 1.31934 28.1215 1.31934V0.319336ZM37.7764 0.319336H28.1215V1.31934H37.7764V0.319336ZM39.164 0.893274C38.7934 0.523936 38.2987 0.319336 37.7764 0.319336V1.31934C38.0336 1.31934 38.2746 1.41869 38.4581 1.60162L39.164 0.893274ZM39.7397 2.27849C39.7397 1.75586 39.534 1.26199 39.164 0.893278L38.4581 1.60162C38.6403 1.7832 38.7397 2.02239 38.7397 2.27849H39.7397ZM39.7397 11.8976V2.27849H38.7397V11.8976H39.7397ZM37.3398 14.2908C38.6619 14.2908 39.7397 13.2194 39.7397 11.8976H38.7397C38.7397 12.6638 38.1129 13.2908 37.3398 13.2908V14.2908ZM34.9399 11.8976C34.9399 13.2194 36.0177 14.2908 37.3398 14.2908V13.2908C36.5667 13.2908 35.9399 12.6638 35.9399 11.8976H34.9399ZM34.9399 7.26685V11.8976H35.9399V7.26685H34.9399ZM23.3579 20.0105L35.7928 7.62105L35.087 6.91265L22.6521 19.3021L23.3579 20.0105ZM21.6703 20.7076C22.2988 20.7076 22.9122 20.4546 23.3579 20.0105L22.652 19.3021C22.394 19.5592 22.0345 19.7076 21.6703 19.7076V20.7076ZM19.9831 20.012C20.4287 20.4547 21.0418 20.7076 21.6703 20.7076V19.7076C21.3059 19.7076 20.9462 19.5592 20.688 19.3026L19.9831 20.012ZM19.9814 20.0102L19.9824 20.0112L20.6888 19.3034L20.6878 19.3024L19.9814 20.0102ZM19.2814 18.3253C19.2814 18.9616 19.5322 19.5613 19.9811 20.01L20.688 19.3026C20.4253 19.0401 20.2814 18.6942 20.2814 18.3253H19.2814ZM19.9831 16.6406C19.5372 17.0837 19.2814 17.6959 19.2814 18.3253H20.2814C20.2814 17.9633 20.4302 17.6061 20.688 17.3499L19.9831 16.6406ZM32.4196 4.25059L19.9827 16.641L20.6885 17.3495L33.1254 4.95902L32.4196 4.25059ZM39.2542 18.3815C38.482 17.9366 37.5292 17.9441 36.7305 18.4043L37.2297 19.2708C37.7309 18.982 38.3031 18.9876 38.755 19.2479L39.2542 18.3815ZM40.4994 20.5301C40.4994 19.645 40.0212 18.8226 39.2539 18.3813L38.7553 19.2481C39.2141 19.512 39.4994 20.0048 39.4994 20.5301H40.4994ZM39.9974 21.0301H39.9994V20.0301H39.9974V21.0301ZM20.8567 40.4968C31.953 40.3054 40.5843 31.5362 40.4974 20.5262L39.4974 20.5341C39.5799 30.9873 31.3954 39.3148 20.8395 39.4969L20.8567 40.4968ZM20.5105 40.4998L20.8524 40.4968L20.8437 39.4969L20.5018 39.4998L20.5105 40.4998ZM0.5 20.4308C0.5 31.4956 9.47012 40.4998 20.5062 40.4998V39.4998C10.0255 39.4998 1.5 30.9464 1.5 20.4308H0.5ZM6.38307 6.3239C2.58998 10.0935 0.5 15.1051 0.5 20.4308H1.5C1.5 15.3726 3.4829 10.616 7.08798 7.0332L6.38307 6.3239ZM20.5537 0.499852C15.225 0.492723 10.1756 2.55383 6.38302 6.32395L7.08803 7.03315C10.6916 3.45086 15.4865 1.49307 20.5524 1.49985L20.5537 0.499852ZM21.3 0.50184L20.5544 0.499854L20.5517 1.49985L21.2973 1.50184L21.3 0.50184ZM21.7986 1.15282V1.00184H20.7986V1.15282H21.7986ZM21.8011 0.842146C21.6984 0.782741 21.592 0.731756 21.4847 0.688724L21.1126 1.61692C21.1787 1.64342 21.2418 1.67388 21.3005 1.70785L21.8011 0.842146ZM23.0456 2.99142C23.0456 2.10582 22.5688 1.28304 21.7998 0.841408L21.3018 1.70858C21.7608 1.9722 22.0456 2.46454 22.0456 2.99142H23.0456ZM21.7998 5.14143C22.5688 4.6998 23.0456 3.87702 23.0456 2.99142H22.0456C22.0456 3.5183 21.7608 4.01064 21.3018 4.27426L21.7998 5.14143ZM20.2748 5.45665C20.8116 5.5204 21.3387 5.40575 21.7995 5.14162L21.3021 4.27406C21.0213 4.43507 20.7091 4.5012 20.3927 4.46363L20.2748 5.45665ZM9.80341 9.93941C12.638 7.0714 16.4082 5.48414 20.3368 5.46013L20.3307 4.46015C16.1334 4.4858 12.1107 6.1824 9.09218 9.23645L9.80341 9.93941ZM5.47916 20.5854C5.43672 16.5836 6.97098 12.8042 9.80335 9.93947L9.09223 9.23639C6.07344 12.2897 4.43393 16.3256 4.47921 20.596L5.47916 20.5854ZM20.3227 35.3985C12.2218 35.3024 5.56207 28.6529 5.47916 20.5856L4.47921 20.5959C4.56774 29.2101 11.6696 36.2959 20.3109 36.3984L20.3227 35.3985ZM31.0243 31.0963C28.1437 33.9177 24.3749 35.436 20.3214 35.3985L20.3122 36.3985C24.6297 36.4384 28.6538 34.8179 31.724 31.8107L31.0243 31.0963ZM35.5232 20.5136C35.502 24.5171 33.9051 28.2736 31.0242 31.0963L31.7241 31.8106C34.7941 28.8026 36.5005 24.7915 36.5232 20.5189L35.5232 20.5136ZM36.0282 20.0162H36.0232V21.0162H36.0282V20.0162ZM36.522 18.5418C35.9166 18.9927 35.554 19.6947 35.5284 20.5004L36.5279 20.5321C36.5443 20.0167 36.7697 19.6042 37.1193 19.3438L36.522 18.5418ZM36.7046 18.4203L36.5452 18.5256L37.0961 19.3601L37.2556 19.2548L36.7046 18.4203Z" fill="black"/>
</svg>
