<svg width="39" height="38" viewBox="0 0 39 38" fill="none" xmlns="http://www.w3.org/2000/svg">
<path fill-rule="evenodd" clip-rule="evenodd" d="M35.0261 9.91427C35.1792 9.96673 35.3412 9.99456 35.5061 9.99525C35.8019 9.99401 36.0907 9.90535 36.3363 9.74042C36.5818 9.57548 36.7732 9.34164 36.8862 9.06828C36.9647 8.87845 37.003 8.67545 36.9999 8.47194C36.9999 8.46701 36.9999 8.46207 36.9999 8.45713C36.9999 8.07071 36.8498 7.70012 36.5826 7.42686C36.5212 7.36404 36.4548 7.30755 36.3842 7.25779L30.5627 1.43626C30.2816 1.15684 29.9014 1 29.505 1C29.1087 1 28.7284 1.15684 28.4473 1.43626C28.1679 1.71736 28.0111 2.0976 28.0111 2.49395C28.0111 2.8903 28.1679 3.27054 28.4473 3.55163L31.8957 6.99999H21.325C19.4354 6.99999 17.6231 7.76759 16.2869 9.13392C14.9507 10.5003 14.2 12.3534 14.2 14.2857V25.9428C14.2 26.3293 14.3501 26.6999 14.6174 26.9732C14.8846 27.2464 15.2471 27.4 15.625 27.4C16.0029 27.4 16.3654 27.2464 16.6326 26.9732C16.8999 26.6999 17.05 26.3293 17.05 25.9428V14.2857C17.05 13.1263 17.5004 12.0144 18.3021 11.1946C19.1039 10.3748 20.1912 9.91427 21.325 9.91427H35.0261ZM29.64 36.9999H8.36629C6.40926 36.9939 4.53453 36.2118 3.15352 34.8252C1.7725 33.4385 0.998008 31.5606 1 29.6036V11.3904C0.998008 9.43339 1.7725 7.5555 3.15352 6.16886C4.53453 4.78221 6.40926 4.00009 8.36629 3.99414H11.5018C11.8997 3.99414 12.2813 4.1522 12.5627 4.43355C12.844 4.71491 13.0021 5.0965 13.0021 5.4944C13.0021 5.89229 12.844 6.27389 12.5627 6.55524C12.2813 6.8366 11.8997 6.99466 11.5018 6.99466H8.36629C7.20505 7.00061 6.09352 7.4666 5.2752 8.29054C4.45689 9.11447 3.99853 10.2292 4.00053 11.3904V29.6036C3.99853 30.7648 4.45689 31.8795 5.2752 32.7035C6.09352 33.5274 7.20505 33.9934 8.36629 33.9994H29.64C30.8012 33.9934 31.9128 33.5274 32.7311 32.7035C33.5494 31.8795 34.0077 30.7648 34.0057 29.6036V17.4965C34.0058 17.0986 34.1639 16.7171 34.4452 16.4358C34.7266 16.1545 35.1082 15.9965 35.506 15.9965C35.9039 15.9965 36.2854 16.1545 36.5668 16.4358C36.8481 16.7171 37.0062 17.0986 37.0063 17.4965V29.6036C37.0083 31.5606 36.2338 33.4385 34.8528 34.8252C33.4717 36.2118 31.597 36.9939 29.64 36.9999Z" fill="white"/>
<path d="M35.5061 9.99525L35.5019 10.9953L35.5103 10.9952L35.5061 9.99525ZM35.0261 9.91427L35.3503 8.96827L35.1927 8.91427H35.0261V9.91427ZM36.8862 9.06828L37.8103 9.45039L37.8103 9.45037L36.8862 9.06828ZM36.9999 8.47194L35.9999 8.46189L35.9998 8.4746L36 8.48731L36.9999 8.47194ZM36.5826 7.42686L37.2976 6.72773L37.2976 6.72773L36.5826 7.42686ZM36.3842 7.25779L35.6771 7.9649L35.7377 8.02548L35.8077 8.07488L36.3842 7.25779ZM30.5627 1.43626L31.2698 0.729155L31.2677 0.727059L30.5627 1.43626ZM28.4473 1.43626L27.7423 0.727046L27.7381 0.731263L28.4473 1.43626ZM28.4473 3.55163L27.7381 4.25664L27.7402 4.25874L28.4473 3.55163ZM31.8957 6.99999V7.99999H34.3099L32.6028 6.29288L31.8957 6.99999ZM16.2869 9.13392L17.0018 9.8331L16.2869 9.13392ZM14.6174 26.9732L13.9024 27.6723L13.9024 27.6724L14.6174 26.9732ZM16.6326 26.9732L17.3476 27.6724L17.3476 27.6723L16.6326 26.9732ZM18.3021 11.1946L17.5872 10.4954V10.4954L18.3021 11.1946ZM8.36629 36.9999L8.36324 37.9999H8.36629V36.9999ZM29.64 36.9999V37.9999L29.643 37.9999L29.64 36.9999ZM3.15352 34.8252L3.86206 34.1195L3.15352 34.8252ZM1 29.6036L2 29.6046V29.6036H1ZM1 11.3904H2L2 11.3894L1 11.3904ZM3.15352 6.16886L2.44497 5.46319H2.44497L3.15352 6.16886ZM8.36629 3.99414V2.99413L8.36324 2.99414L8.36629 3.99414ZM12.5627 4.43355L11.8556 5.14066L11.8556 5.14066L12.5627 4.43355ZM12.5627 6.55524L11.8556 5.84813L11.8556 5.84814L12.5627 6.55524ZM8.36629 6.99466V5.99464L8.36116 5.99467L8.36629 6.99466ZM5.2752 8.29054L4.56568 7.58586L4.56568 7.58586L5.2752 8.29054ZM4.00053 11.3904H5.00053L5.00052 11.3887L4.00053 11.3904ZM4.00053 29.6036L5.00053 29.6053V29.6036H4.00053ZM5.2752 32.7035L5.98473 31.9988L5.98473 31.9988L5.2752 32.7035ZM8.36629 33.9994L8.36116 34.9994H8.36629V33.9994ZM29.64 33.9994V34.9994L29.6451 34.9994L29.64 33.9994ZM32.7311 32.7035L32.0215 31.9988L32.0215 31.9988L32.7311 32.7035ZM34.0057 29.6036H33.0057V29.6053L34.0057 29.6036ZM34.0057 17.4965L33.0057 17.4963V17.4965H34.0057ZM34.4452 16.4358L33.7382 15.7286L33.7382 15.7286L34.4452 16.4358ZM36.5668 16.4358L37.2738 15.7286V15.7286L36.5668 16.4358ZM37.0063 17.4965H38.0063V17.4963L37.0063 17.4965ZM37.0063 29.6036H36.0063V29.6046L37.0063 29.6036ZM34.8528 34.8252L34.1442 34.1195L34.8528 34.8252ZM35.5103 8.99526C35.4553 8.99503 35.4013 8.98576 35.3503 8.96827L34.702 10.8603C34.9571 10.9477 35.2271 10.9941 35.5019 10.9952L35.5103 8.99526ZM35.7787 8.91029C35.6968 8.96529 35.6005 8.99485 35.5019 8.99526L35.5103 10.9952C36.0033 10.9932 36.4846 10.8454 36.8939 10.5705L35.7787 8.91029ZM35.9621 8.68616C35.9244 8.77731 35.8606 8.85529 35.7787 8.91029L36.8939 10.5705C37.3031 10.2957 37.6219 9.90596 37.8103 9.45039L35.9621 8.68616ZM36 8.48731C36.001 8.55517 35.9883 8.62287 35.9621 8.68618L37.8103 9.45037C37.9411 9.13403 38.005 8.79573 37.9997 8.45657L36 8.48731ZM37.9998 8.48199C37.9999 8.47345 37.9999 8.46515 37.9999 8.45713H35.9999C35.9999 8.45898 35.9999 8.46056 35.9999 8.46189L37.9998 8.48199ZM37.9999 8.45713C37.9999 7.81263 37.7498 7.19015 37.2976 6.72773L35.8676 8.12598C35.9499 8.21008 35.9999 8.3288 35.9999 8.45713H37.9999ZM37.2976 6.72773C37.1936 6.62137 37.0808 6.52541 36.9608 6.4407L35.8077 8.07488C35.8287 8.08968 35.8488 8.10671 35.8676 8.12598L37.2976 6.72773ZM29.8556 2.14337L35.6771 7.9649L37.0914 6.55068L31.2698 0.729158L29.8556 2.14337ZM29.505 2C29.6372 2 29.764 2.0523 29.8577 2.14547L31.2677 0.727059C30.7993 0.261381 30.1656 0 29.505 0V2ZM29.1524 2.14547C29.2461 2.0523 29.3729 2 29.505 2V0C28.8445 0 28.2108 0.261381 27.7423 0.727059L29.1524 2.14547ZM29.0111 2.49395C29.0111 2.36178 29.0634 2.23499 29.1566 2.14127L27.7381 0.731263C27.2725 1.19972 27.0111 1.83342 27.0111 2.49395H29.0111ZM29.1566 2.84663C29.0634 2.7529 29.0111 2.62611 29.0111 2.49395H27.0111C27.0111 3.15448 27.2725 3.78818 27.7381 4.25663L29.1566 2.84663ZM32.6028 6.29288L29.1545 2.84453L27.7402 4.25874L31.1886 7.7071L32.6028 6.29288ZM31.8957 5.99999H21.325V7.99999H31.8957V5.99999ZM21.325 5.99999C19.1628 5.99999 17.0939 6.87849 15.5719 8.43474L17.0018 9.8331C18.1523 8.65669 19.7079 7.99999 21.325 7.99999V5.99999ZM15.5719 8.43474C14.0507 9.99024 13.2 12.0953 13.2 14.2857H15.2C15.2 12.6115 15.8506 11.0103 17.0018 9.8331L15.5719 8.43474ZM13.2 14.2857V25.9428H15.2V14.2857H13.2ZM13.2 25.9428C13.2 26.5874 13.4502 27.2099 13.9024 27.6723L15.3323 26.274C15.25 26.1899 15.2 26.0712 15.2 25.9428H13.2ZM13.9024 27.6724C14.3554 28.1355 14.9745 28.4 15.625 28.4V26.4C15.5196 26.4 15.4138 26.3573 15.3323 26.274L13.9024 27.6724ZM15.625 28.4C16.2754 28.4 16.8946 28.1355 17.3476 27.6724L15.9177 26.274C15.8362 26.3573 15.7304 26.4 15.625 26.4V28.4ZM17.3476 27.6723C17.7998 27.2099 18.05 26.5874 18.05 25.9428H16.05C16.05 26.0712 15.9999 26.1899 15.9177 26.274L17.3476 27.6723ZM18.05 25.9428V14.2857H16.05V25.9428H18.05ZM18.05 14.2857C18.05 13.3844 18.4003 12.5244 19.0171 11.8938L17.5872 10.4954C16.6005 11.5044 16.05 12.8682 16.05 14.2857H18.05ZM19.0171 11.8938C19.6331 11.2639 20.4637 10.9143 21.325 10.9143V8.91427C19.9187 8.91427 18.5746 9.48573 17.5872 10.4954L19.0171 11.8938ZM21.325 10.9143H35.0261V8.91427H21.325V10.9143ZM8.36629 37.9999H29.64V35.9999H8.36629V37.9999ZM2.44497 35.5308C4.0129 37.1051 6.14135 37.9931 8.36324 37.9999L8.36933 35.9999C6.67717 35.9947 5.05617 35.3185 3.86206 34.1195L2.44497 35.5308ZM4.35114e-06 29.6026C-0.00226164 31.8245 0.877049 33.9565 2.44497 35.5308L3.86206 34.1195C2.66795 32.9205 1.99828 31.2968 2 29.6046L4.35114e-06 29.6026ZM3.8743e-06 11.3904V29.6036H2V11.3904H3.8743e-06ZM2.44497 5.46319C0.87705 7.0375 -0.00226164 9.16954 4.35114e-06 11.3914L2 11.3894C1.99828 9.69723 2.66795 8.0735 3.86206 6.87452L2.44497 5.46319ZM8.36324 2.99414C6.14135 3.00091 4.0129 3.88888 2.44497 5.46319L3.86206 6.87452C5.05617 5.67555 6.67717 4.99928 8.36933 4.99413L8.36324 2.99414ZM11.5018 2.99414H8.36629V4.99414H11.5018V2.99414ZM13.2698 3.72645C12.8009 3.25755 12.1649 2.99414 11.5018 2.99414V4.99414C11.6345 4.99414 11.7618 5.04684 11.8556 5.14066L13.2698 3.72645ZM14.0021 5.4944C14.0021 4.83128 13.7387 4.19533 13.2698 3.72644L11.8556 5.14066C11.9494 5.23448 12.0021 5.36172 12.0021 5.4944H14.0021ZM13.2698 7.26235C13.7387 6.79346 14.0021 6.15751 14.0021 5.4944H12.0021C12.0021 5.62707 11.9494 5.75432 11.8556 5.84813L13.2698 7.26235ZM11.5018 7.99466C12.1649 7.99466 12.8009 7.73124 13.2698 7.26235L11.8556 5.84814C11.7618 5.94195 11.6345 5.99466 11.5018 5.99466V7.99466ZM8.36629 7.99466H11.5018V5.99466H8.36629V7.99466ZM5.98473 8.99522C6.61656 8.35904 7.4748 7.99924 8.37141 7.99464L8.36116 5.99467C6.9353 6.00198 5.57047 6.57416 4.56568 7.58586L5.98473 8.99522ZM5.00052 11.3887C4.99898 10.4921 5.35289 9.6314 5.98473 8.99522L4.56568 7.58586C3.56089 8.59755 2.99807 9.96627 3.00053 11.3921L5.00052 11.3887ZM5.00053 29.6036V11.3904H3.00053V29.6036H5.00053ZM5.98473 31.9988C5.35289 31.3626 4.99898 30.5019 5.00052 29.6053L3.00053 29.6019C2.99807 31.0278 3.56089 32.3965 4.56568 33.4082L5.98473 31.9988ZM8.37141 32.9994C7.4748 32.9948 6.61656 32.635 5.98473 31.9988L4.56568 33.4082C5.57047 34.4199 6.9353 34.992 8.36116 34.9994L8.37141 32.9994ZM29.64 32.9994H8.36629V34.9994H29.64V32.9994ZM32.0215 31.9988C31.3897 32.635 30.5315 32.9948 29.6349 32.9994L29.6451 34.9994C31.071 34.992 32.4358 34.4199 33.4406 33.4082L32.0215 31.9988ZM33.0057 29.6053C33.0073 30.5019 32.6534 31.3626 32.0215 31.9988L33.4406 33.4082C34.4454 32.3965 35.0082 31.0277 35.0057 29.6019L33.0057 29.6053ZM33.0057 17.4965V29.6036H35.0057V17.4965H33.0057ZM33.7382 15.7286C33.2693 16.1974 33.0059 16.8333 33.0057 17.4963L35.0057 17.4966C35.0058 17.364 35.0585 17.2367 35.1523 17.1429L33.7382 15.7286ZM35.506 14.9965C34.843 14.9965 34.2071 15.2598 33.7382 15.7286L35.1523 17.143C35.2461 17.0492 35.3733 16.9965 35.506 16.9965V14.9965ZM37.2738 15.7286C36.8049 15.2598 36.1691 14.9965 35.506 14.9965V16.9965C35.6387 16.9965 35.7659 17.0492 35.8597 17.143L37.2738 15.7286ZM38.0063 17.4963C38.0062 16.8333 37.7427 16.1974 37.2738 15.7286L35.8597 17.1429C35.9535 17.2368 36.0063 17.364 36.0063 17.4966L38.0063 17.4963ZM38.0063 29.6036V17.4965H36.0063V29.6036H38.0063ZM35.5613 35.5308C37.1292 33.9565 38.0085 31.8245 38.0063 29.6026L36.0063 29.6046C36.008 31.2968 35.3383 32.9205 34.1442 34.1195L35.5613 35.5308ZM29.643 37.9999C31.8649 37.9931 33.9934 37.1051 35.5613 35.5308L34.1442 34.1195C32.9501 35.3185 31.3291 35.9947 29.6369 35.9999L29.643 37.9999Z" fill="white"/>
</svg>
