<svg width="60" height="60" viewBox="0 0 60 60" fill="none" xmlns="http://www.w3.org/2000/svg">
<path d="M47.6509 12.2825H42.5419C41.8932 12.2825 41.3673 12.8084 41.3673 13.4572V47.1079C41.3673 47.7566 41.8932 48.2825 42.5419 48.2825H47.6509C48.2997 48.2825 48.8256 47.7566 48.8256 47.1079V13.4572C48.8256 12.8084 48.2997 12.2825 47.6509 12.2825Z" fill="white"/>
<path d="M37.9713 12.2825H32.8622C32.2135 12.2825 31.6876 12.8084 31.6876 13.4572V47.1079C31.6876 47.7566 32.2135 48.2825 32.8622 48.2825H37.9713C38.62 48.2825 39.1459 47.7566 39.1459 47.1079V13.4572C39.1459 12.8084 38.62 12.2825 37.9713 12.2825Z" fill="white"/>
<path d="M27.9485 13.9136L23.0821 12.3577C22.4642 12.1602 21.8031 12.5009 21.6055 13.1188L11.3577 45.1712C11.1602 45.7891 11.5009 46.4502 12.1188 46.6478L16.9852 48.2037C17.6031 48.4012 18.2642 48.0604 18.4618 47.4425L28.7096 15.3901C28.9071 14.7722 28.5664 14.1112 27.9485 13.9136Z" fill="white"/>
</svg>
