<svg width="70" height="70" viewBox="0 0 70 70" fill="none" xmlns="http://www.w3.org/2000/svg">
<circle cx="35" cy="35" r="35" fill="black"/>
<path fill-rule="evenodd" clip-rule="evenodd" d="M35.0625 14.5C29.9342 14.5 24.5623 16.5492 20.4705 20.3852L20.4646 20.3907L20.4589 20.3964C12.5137 28.3417 12.5137 41.4083 20.4589 49.3536C24.5521 53.4467 29.6791 55.5 35.0625 55.5C39.2815 55.5 43.7333 54.0614 47.2689 51.4135L50.459 54.6036C51.0588 55.2035 51.9388 55.5 52.5625 55.5C52.9958 55.5 53.3793 55.4272 53.7343 55.2694C54.0872 55.1126 54.3865 54.8831 54.6661 54.6036C55.8613 53.4083 55.8613 51.5917 54.6661 50.3964L51.474 47.2044C57.3432 39.2656 56.7378 27.7182 49.4161 20.3964C45.5673 16.5477 40.1878 14.5 35.0625 14.5ZM24.9311 24.8379C27.5787 21.9496 31.1909 20.5 35.0625 20.5C38.9341 20.5 42.5463 21.9496 45.1939 24.8379L45.2013 24.8459L45.2089 24.8536C50.2744 29.919 50.7675 38.133 46.4201 43.9398L45.2075 45.395L43.7463 46.6127C41.3341 48.5408 37.9459 49.75 34.8125 49.75C30.9409 49.75 27.3287 48.3004 24.6811 45.4121C22.0124 42.5009 20.5625 38.8703 20.5625 35C20.5625 31.1284 22.0121 27.5162 24.9004 24.8686L24.9164 24.8539L24.9311 24.8379Z" fill="white"/>
</svg>
